<svg width="53" height="51" viewBox="0 0 53 51" fill="none" xmlns="http://www.w3.org/2000/svg">
<path d="M40.8698 20.4349C40.8698 31.7207 31.7207 40.8698 20.4349 40.8698C9.14901 40.8698 0 31.7207 0 20.4349C0 9.14901 9.14901 0 20.4349 0C31.7207 0 40.8698 9.14901 40.8698 20.4349Z" transform="translate(5.66675 9.07529) rotate(0.0723313)" fill="#29A5FF"/>
<circle cx="9.02296" cy="9.02296" r="9.02296" transform="translate(34.3293 29.9514) rotate(0.0723313)" fill="white"/>
<circle cx="6.36915" cy="6.36915" r="6.36915" transform="translate(36.9797 32.6086) rotate(0.0723313)" fill="#29A5FF"/>
<circle cx="9.02296" cy="9.02296" r="9.02296" transform="translate(0.0800781 30.6958) rotate(0.0723313)" fill="white"/>
<circle cx="6.36915" cy="6.36915" r="6.36915" transform="translate(2.73071 33.353) rotate(0.0723313)" fill="#29A5FF"/>
<circle cx="9.02296" cy="9.02296" r="9.02296" transform="translate(17.0403 0.0213623) rotate(0.0723313)" fill="white"/>
<circle cx="6.36915" cy="6.36915" r="6.36915" transform="translate(19.6907 2.67853) rotate(0.0723313)" fill="#29A5FF"/>
<rect width="3.71534" height="5.30763" transform="translate(23.9402 17.5903) rotate(0.0723313)" fill="white"/>
<rect width="3.71534" height="5.30763" transform="translate(19.4517 30.9585) rotate(58.6645)" fill="white"/>
<rect width="3.71534" height="5.30763" transform="translate(37.3264 33.5064) rotate(118.699)" fill="white"/>
<circle cx="9.02296" cy="9.02296" r="9.02296" transform="translate(17.0403 20.0463) rotate(0.0723313)" fill="white"/>
<circle cx="6.36915" cy="6.36915" r="6.36915" transform="translate(19.4624 22.5917) rotate(0.0723313)" fill="#29A5FF"/>
</svg>
